<?xml version="1.0" standalone="no"?>
<!DOCTYPE svg PUBLIC "-//W3C//DTD SVG 20010904//EN"
 "http://www.w3.org/TR/2001/REC-SVG-20010904/DTD/svg10.dtd">
<svg version="1.0" xmlns="http://www.w3.org/2000/svg"
 width="1024.000000pt" height="1024.000000pt" viewBox="0 0 1024.000000 1024.000000"
 preserveAspectRatio="xMidYMid meet">
<metadata>
Created by potrace 1.14, written by Peter Selinger 2001-2017
</metadata>
<g transform="translate(0.000000,1024.000000) scale(0.100000,-0.100000)"
fill="#000000" stroke="none">
<path d="M0 5145 l0 -5095 68 50 c79 57 184 103 297 130 112 27 377 42 576 34
92 -4 183 -4 202 0 33 6 36 10 46 57 11 50 84 189 100 189 4 0 18 18 30 41 17
30 22 50 18 77 -4 21 -1 46 6 59 24 43 125 143 145 143 30 0 106 -64 217 -184
108 -117 205 -241 231 -295 20 -41 11 -62 -32 -72 -26 -7 -287 -27 -629 -50
-66 -4 -181 -12 -255 -18 -74 -5 -216 -15 -315 -20 -238 -14 -462 -55 -545
-100 -104 -56 -136 -75 -145 -82 -5 -5 1633 -9 3847 -9 3076 0 3857 3 3861 13
4 9 7 9 18 0 10 -10 275 -13 1256 -13 l1243 0 0 4978 -1 4977 -24 -90 c-12
-49 -32 -110 -43 -136 -29 -67 -117 -193 -157 -227 -47 -38 -176 -102 -207
-102 -13 0 -62 -10 -108 -21 -152 -39 -360 -7 -584 89 -129 56 -175 93 -249
205 -102 151 -157 345 -143 499 l6 68 -1070 0 -1071 0 17 -31 c18 -36 37 -107
53 -200 15 -88 -8 -338 -40 -429 -69 -200 -229 -346 -419 -383 -277 -53 -418
-51 -604 10 -146 48 -316 204 -396 363 -78 156 -95 340 -51 549 11 57 24 107
27 112 3 5 -571 9 -1386 9 -1333 0 -1391 -1 -1386 -18 17 -53 24 -173 14 -252
-21 -176 -137 -379 -257 -452 -20 -12 -53 -35 -74 -51 -79 -61 -239 -104 -422
-113 -127 -6 -231 7 -361 45 -68 20 -146 83 -221 181 -60 78 -74 104 -110 206
-24 69 -27 94 -27 194 0 63 4 148 8 188 l9 72 -482 0 -481 0 0 -5095z m4434
3178 c23 -23 26 -24 26 -7 0 16 7 19 47 17 27 -1 65 3 85 9 28 8 44 8 67 -1
19 -9 35 -10 46 -3 21 11 65 -7 65 -26 0 -7 8 -15 18 -19 9 -3 24 -12 33 -20
13 -11 19 -10 39 7 12 11 27 17 32 14 5 -3 17 1 27 10 17 16 19 15 25 -9 7
-29 26 -25 26 6 0 11 4 18 9 15 5 -4 12 0 15 6 4 8 8 9 11 3 6 -13 72 -7 81 6
8 14 24 10 24 -6 0 -8 9 -15 20 -15 11 0 20 -5 20 -11 0 -6 9 -8 20 -4 11 4
20 2 20 -4 0 -6 7 -11 15 -11 8 0 15 -4 15 -10 0 -19 15 -9 37 24 15 24 31 35
54 38 56 8 69 0 63 -37 -6 -37 7 -52 26 -30 16 19 31 19 24 0 -9 -23 14 -18
27 6 9 17 13 19 19 8 5 -7 7 -16 4 -20 -2 -4 0 -10 5 -13 5 -4 12 -2 15 3 3 5
15 7 25 4 16 -4 20 -14 19 -44 0 -48 1 -49 41 -52 17 -1 31 -5 31 -8 0 -4 21
-5 48 -2 26 2 56 5 67 6 11 1 26 6 33 10 20 13 14 -5 -18 -53 -16 -25 -30 -53
-30 -62 0 -15 4 -16 27 -7 14 5 42 23 61 40 33 29 35 29 53 13 11 -10 17 -24
14 -33 -4 -15 8 -45 16 -40 11 6 49 -14 49 -27 0 -10 7 -13 25 -8 20 5 28 0
45 -28 13 -21 19 -43 16 -61 -5 -25 -4 -27 22 -21 15 4 36 11 46 17 16 8 18 6
13 -7 -4 -9 -10 -23 -13 -31 -6 -14 10 -19 54 -18 6 1 12 -10 12 -24 0 -22 3
-24 26 -19 17 5 23 3 19 -4 -4 -6 4 -19 16 -29 l23 -18 -22 -19 c-28 -23 -28
-34 -1 -34 49 0 165 -76 209 -137 14 -20 36 -37 52 -40 35 -7 35 -27 -3 -121
-5 -13 -9 -31 -9 -40 0 -10 -9 -35 -20 -57 -22 -42 -25 -61 -12 -69 14 -8 106
-24 207 -35 56 -6 60 -8 59 -31 0 -14 -3 -32 -5 -40 -3 -12 6 -15 38 -15 52
-1 60 -8 43 -41 -12 -22 -12 -27 0 -34 8 -6 25 -10 37 -10 14 0 21 -5 17 -13
-6 -17 85 -57 131 -57 19 0 60 -11 92 -25 79 -36 269 -49 370 -26 49 11 188
36 278 51 28 4 63 13 78 19 16 6 43 11 60 11 18 0 42 7 54 15 12 8 23 11 25 6
2 -4 32 -5 68 -1 36 5 99 11 140 14 41 3 85 9 98 12 13 4 22 2 22 -4 0 -8 26
-9 80 -6 63 4 80 3 80 -8 0 -7 23 -20 52 -28 45 -13 56 -21 76 -58 23 -42 24
-101 2 -87 -6 3 -10 0 -11 -7 0 -7 -5 3 -12 22 -25 74 -179 107 -407 87 -111
-10 -214 -29 -239 -44 -13 -9 -52 -17 -86 -18 -35 -2 -72 -8 -82 -13 -28 -15
-144 -43 -154 -37 -4 3 -23 -2 -41 -11 -18 -10 -44 -19 -58 -20 -35 -4 -69
-24 -75 -45 -8 -25 -37 -32 -69 -18 -20 10 -32 10 -52 0 -31 -14 -57 1 -52 29
5 27 -22 50 -57 50 -25 0 -38 -8 -59 -34 -15 -20 -38 -37 -56 -41 -19 -4 -30
-13 -30 -24 0 -19 -49 -71 -67 -71 -6 0 -16 -7 -23 -15 -9 -10 -24 -14 -44
-11 -16 3 -36 0 -43 -6 -10 -8 -25 -6 -56 5 -23 9 -55 15 -71 15 -21 0 -37 8
-53 28 -34 41 -53 87 -39 96 17 11 0 20 -48 25 -47 6 -76 25 -56 38 10 6 -31
95 -57 123 -7 7 -13 18 -13 24 0 10 -33 55 -65 88 -12 14 -12 23 -1 65 8 28
17 57 20 65 4 11 -1 15 -19 16 -14 1 -25 -1 -25 -5 0 -3 -14 -6 -31 -7 -18 -1
-36 -9 -45 -22 -18 -27 -86 -46 -132 -37 -24 4 -50 0 -86 -14 -69 -27 -248
-55 -303 -47 -51 7 -91 -10 -116 -47 -12 -19 -28 -26 -69 -31 -29 -4 -68 -9
-85 -12 -35 -7 -43 6 -19 28 12 11 11 15 -8 25 -11 7 -15 12 -8 13 7 0 11 4 8
9 -4 5 -23 7 -44 5 -33 -4 -39 -1 -55 26 -10 16 -23 30 -28 30 -7 0 -8 12 -4
32 6 26 5 30 -9 25 -11 -5 -16 -1 -16 13 0 11 -4 20 -10 20 -5 0 -10 -4 -10
-10 0 -19 -18 -10 -23 11 -4 15 -11 20 -22 15 -12 -4 -19 0 -22 14 -6 22 -19
26 -26 8 -3 -10 -7 -10 -20 0 -9 8 -21 11 -27 7 -6 -4 -18 -1 -26 6 -11 9 -18
9 -26 1 -6 -6 -17 -8 -25 -5 -17 7 -63 -34 -63 -56 0 -11 -3 -10 -14 5 -14 18
-15 18 -21 1 -5 -11 -14 -16 -25 -12 -9 3 -23 -1 -30 -10 -7 -8 -18 -15 -24
-15 -16 0 -36 -56 -24 -68 15 -15 5 -77 -12 -77 -22 0 -80 -44 -77 -58 5 -29
-314 -22 -422 9 -31 9 -83 20 -116 26 -326 51 -310 50 -586 46 -199 -2 -270
-6 -282 -16 -13 -11 -18 -10 -30 9 -34 48 -96 -8 -96 -87 0 -52 -16 -88 -47
-104 -16 -8 -33 -20 -39 -27 -5 -6 -37 -13 -70 -15 -53 -4 -65 -9 -98 -41 -21
-20 -47 -37 -57 -37 -10 0 -34 -13 -52 -30 -42 -38 -73 -41 -64 -5 6 24 4 25
-40 25 -35 0 -50 5 -65 23 -10 12 -18 27 -19 33 0 10 -23 25 -121 78 -25 13
-67 44 -93 68 -56 50 -134 76 -166 56 -14 -9 -25 -9 -42 -1 -23 11 -89 37 -98
39 -11 2 -46 16 -62 25 -10 5 -27 9 -38 9 -11 0 -20 4 -20 10 0 11 -87 37
-145 43 -22 3 -53 10 -69 16 -16 6 -90 25 -164 42 -74 16 -138 31 -141 34 -13
7 -97 18 -178 22 -76 4 -88 2 -147 -26 -35 -17 -67 -34 -70 -39 -3 -5 -1 -39
5 -76 6 -48 21 -87 50 -139 38 -68 39 -71 12 -44 -33 31 -113 183 -113 215 0
11 -4 24 -10 27 -5 3 -10 12 -10 19 0 21 54 85 72 86 9 0 19 4 22 9 3 4 33 14
68 21 51 11 78 11 157 0 53 -7 110 -14 126 -15 17 0 37 -4 45 -7 15 -7 134
-40 275 -77 39 -11 93 -22 120 -26 28 -4 57 -11 65 -15 9 -5 36 -10 60 -13 25
-3 88 -16 140 -31 52 -14 109 -26 125 -25 108 1 153 -2 209 -12 56 -9 67 -8
90 6 14 10 23 21 20 26 -3 5 4 9 15 9 17 0 19 5 14 34 -5 32 -3 34 31 46 40
13 40 13 25 42 -11 20 -9 20 35 14 26 -4 46 -3 46 2 0 25 166 44 200 22 9 -6
19 -5 28 3 11 8 16 7 23 -5 7 -13 20 -16 58 -13 38 4 55 0 74 -15 14 -11 29
-20 33 -20 4 0 20 -14 36 -32 15 -17 28 -29 28 -27 0 9 -40 83 -47 88 -12 9
-63 109 -63 122 0 7 -7 17 -16 23 -13 10 -14 15 0 41 8 16 13 32 10 37 -3 4
10 8 28 8 42 0 53 8 62 43 4 18 0 38 -11 60 -10 17 -18 49 -18 70 -1 35 0 37
31 37 18 0 39 6 46 13 7 8 20 12 30 9 10 -2 18 1 18 7 0 6 7 11 15 11 8 0 15
7 15 15 0 8 5 15 10 15 6 0 10 7 10 16 0 8 9 34 19 57 11 24 23 55 26 69 4 15
14 27 23 27 59 2 92 14 92 33 0 14 5 18 15 14 10 -3 15 1 15 14 0 22 16 35 25
20 9 -15 27 -1 21 16 -4 10 3 14 24 14 17 0 30 3 30 8 0 4 4 13 9 21 8 13 12
13 28 1 15 -12 16 -12 6 0 -17 19 -16 31 1 24 7 -3 20 1 28 10 10 9 20 11 29
5 21 -13 26 -11 32 12 3 12 10 18 16 15 5 -4 12 -2 16 4 4 6 11 8 16 5 5 -4 9
8 9 24 0 26 4 31 25 31 14 0 25 5 25 10 0 6 9 10 19 10 11 0 22 4 26 10 3 5
12 7 19 4 8 -3 33 4 57 15 33 16 45 18 52 9 7 -10 10 -10 14 -1 3 9 10 10 24
3 16 -9 19 -7 19 9 0 12 9 22 23 26 24 7 61 22 89 36 10 5 25 9 33 9 8 0 15 6
15 14 0 9 7 12 20 9 11 -3 20 -1 20 4 0 19 40 10 64 -14z m-409 -1332 c206
-59 290 -88 306 -107 6 -8 20 -14 30 -14 35 0 94 -44 83 -62 -3 -5 0 -8 6 -8
7 0 9 -9 5 -22 -18 -62 -18 -60 3 -54 13 5 22 1 26 -11 4 -10 2 -19 -3 -21 -6
-2 -8 -9 -4 -15 4 -7 8 -16 8 -22 1 -24 29 -91 41 -98 20 -12 16 -36 -14 -89
-43 -75 -129 -166 -183 -193 -27 -14 -49 -22 -49 -18 0 4 -6 0 -12 -9 -23 -28
-131 -78 -170 -78 -21 0 -38 4 -38 8 0 4 25 32 55 62 48 48 56 52 67 38 15
-18 78 -14 78 6 0 6 12 24 27 40 21 23 24 32 15 47 -9 13 -8 19 1 23 7 4 2 4
-11 2 -19 -4 -21 -2 -11 10 6 8 20 14 30 14 23 0 48 25 73 73 17 33 17 37 2
52 -13 14 -19 15 -31 5 -9 -7 -15 -8 -15 -2 0 5 7 15 15 22 8 7 15 16 15 21 0
16 -27 9 -45 -11 -23 -26 -39 -26 -23 0 18 29 1 37 -21 9 -15 -19 -21 -21 -34
-11 -12 10 -16 9 -21 -10 -5 -19 -8 -20 -16 -8 -12 19 -13 60 -1 60 5 0 11 14
13 30 3 17 1 30 -4 30 -4 0 -8 -6 -9 -12 0 -8 -3 -7 -6 2 -4 9 -11 1 -19 -25
-11 -37 -13 -38 -19 -17 -6 18 -10 20 -16 10 -6 -9 -9 -2 -9 20 0 19 8 40 20
52 11 11 20 32 19 48 l-1 27 -11 -27 c-16 -40 -37 -44 -37 -8 0 22 -4 28 -15
24 -10 -4 -15 0 -15 11 0 9 5 13 10 10 16 -10 12 5 -11 36 -11 16 -25 26 -30
23 -6 -3 -9 2 -7 11 2 10 -4 20 -12 22 -13 4 -13 3 0 -7 12 -10 11 -11 -8 -7
-18 4 -22 2 -18 -9 3 -9 1 -12 -4 -9 -6 3 -13 0 -16 -9 -3 -8 -11 -13 -17 -10
-7 2 -28 -20 -48 -49 -35 -52 -36 -54 -17 -66 31 -19 5 -38 -62 -46 -33 -4
-60 -11 -60 -16 0 -5 -4 -9 -9 -9 -5 0 -36 -16 -69 -36 -56 -33 -112 -94 -112
-123 0 -6 -7 -25 -15 -41 -11 -22 -23 -30 -42 -30 -15 0 -42 -6 -61 -12 -28
-10 -36 -10 -39 0 -3 6 -20 12 -38 12 -19 0 -37 5 -41 11 -4 8 -9 7 -14 -2
-13 -19 -42 8 -35 32 4 13 1 19 -8 19 -8 0 -17 12 -20 26 -3 19 2 29 19 41 23
15 36 41 14 28 -12 -7 -40 12 -40 26 0 5 9 9 20 9 23 0 73 47 65 61 -4 5 -13
9 -21 9 -18 0 -18 16 0 23 15 6 29 47 16 47 -5 0 -15 -7 -24 -15 -23 -24 -49
-19 -43 8 3 12 8 40 12 62 31 213 31 211 51 195 8 -7 13 -19 10 -27 -7 -18 4
-17 18 2 8 11 54 19 171 29 200 18 366 14 460 -13z m1489 -236 c3 -86 2 -90
-26 -118 -15 -17 -28 -38 -28 -48 0 -11 -5 -16 -14 -13 -7 3 -16 -2 -19 -11
-5 -11 -14 -14 -30 -10 -21 6 -25 2 -31 -25 -4 -23 -10 -30 -21 -26 -8 3 -22
9 -30 12 -20 8 -15 -27 6 -53 8 -10 20 -30 27 -45 10 -23 9 -26 -5 -21 -12 5
-13 2 -5 -13 6 -11 19 -28 31 -38 11 -10 18 -22 16 -26 -7 -11 -53 0 -66 16
-6 8 -15 14 -20 14 -26 0 -90 69 -154 167 -50 76 -70 124 -45 108 6 -3 10 1
10 9 0 9 7 16 15 16 8 0 14 -5 13 -11 -2 -6 3 -14 9 -16 10 -3 10 3 2 27 -14
38 -5 49 19 27 27 -24 52 -22 52 6 1 20 2 20 11 5 12 -22 29 -23 29 -4 0 24
34 76 47 72 6 -3 23 9 37 26 l25 31 19 -23 18 -22 -1 28 c0 27 3 29 37 29 20
0 43 6 49 12 7 7 14 11 16 9 2 -1 5 -43 7 -91z m74 73 c-2 -13 -9 -22 -16 -20
-6 1 -12 -2 -12 -7 0 -5 -7 -11 -15 -15 -11 -4 -14 0 -11 17 3 12 5 25 5 29 1
6 21 14 44 17 5 0 7 -9 5 -21z m2082 -23 c10 -12 10 -16 -1 -19 -8 -2 -33 -9
-57 -16 -23 -7 -45 -10 -49 -7 -3 4 -1 7 5 7 7 0 12 6 12 13 0 13 35 34 61 36
9 0 22 -6 29 -14z m-132 -29 c22 -13 0 -27 -66 -41 -68 -14 -94 -7 -72 20 7 9
20 13 28 10 8 -3 20 -1 26 4 22 18 62 21 84 7z m-1589 -13 c3 -5 28 -25 54
-47 54 -43 154 -169 138 -174 -7 -2 -8 -25 -4 -63 4 -40 2 -59 -5 -59 -16 0
-41 41 -40 65 2 26 -61 125 -78 125 -8 0 -24 10 -35 21 -29 29 -122 53 -149
39 -14 -7 -20 -7 -20 0 0 5 -7 10 -15 10 -11 0 -10 5 6 21 19 19 19 22 5 38
-28 30 -1 44 73 37 36 -3 67 -9 70 -13z m-4626 -23 c18 -22 21 -30 10 -30 -11
1 -46 50 -36 50 5 0 16 -9 26 -20z m2572 -88 c6 -4 11 -14 13 -23 2 -13 -14
-21 -64 -33 -37 -9 -80 -24 -96 -32 -44 -23 -45 -10 -2 35 46 46 121 74 149
53z m1888 -8 c-5 -13 1 -15 28 -14 51 3 61 1 54 -10 -3 -5 -28 -10 -54 -10
-43 0 -47 2 -45 23 3 28 2 27 14 27 5 0 7 -7 3 -16z m154 -21 c-8 -7 -37 9
-31 19 3 5 12 4 20 -3 8 -6 13 -14 11 -16z m-4497 -33 c0 -5 -2 -10 -4 -10 -3
0 -8 5 -11 10 -3 6 -1 10 4 10 6 0 11 -4 11 -10z m3630 -161 c0 -12 318 -329
329 -329 6 0 14 -6 18 -12 4 -7 22 -20 38 -29 21 -11 29 -21 26 -35 -2 -10 -3
-33 -3 -51 0 -17 -5 -34 -13 -37 -8 -3 -11 -13 -8 -25 4 -15 1 -21 -10 -21
-10 0 -13 -6 -10 -20 3 -11 0 -26 -6 -34 -14 -17 -2 -82 28 -150 21 -47 40
-112 44 -149 1 -10 8 -21 15 -26 27 -16 -18 -21 -49 -6 -31 17 -39 35 -14 35
11 0 8 8 -12 27 -15 16 -35 26 -45 25 -10 -2 -18 0 -16 5 3 15 -25 63 -38 63
-7 0 -16 5 -20 12 -5 8 0 9 15 5 16 -4 20 -2 13 6 -5 7 -12 25 -16 40 -4 18
-16 31 -34 38 -25 10 -26 12 -10 23 20 15 14 26 -14 26 -10 0 -18 5 -18 11 0
5 6 7 13 3 9 -6 8 -3 -1 8 -8 10 -20 14 -30 11 -9 -4 -11 -8 -5 -10 9 -3 9
-11 1 -28 -6 -13 -8 -31 -5 -39 4 -9 6 -19 6 -22 0 -4 5 -10 12 -15 8 -4 10
-11 5 -16 -4 -4 -12 1 -18 12 -17 29 -89 105 -101 105 -6 0 -18 6 -26 13 -26
22 -92 37 -112 27 -10 -6 -25 -7 -33 -4 -9 3 -16 1 -16 -5 0 -6 -9 -11 -21
-11 -14 0 -18 -4 -12 -12 4 -7 -5 -5 -19 4 -15 10 -29 14 -32 10 -8 -13 -51
-6 -48 7 1 6 -5 11 -13 11 -8 0 -15 -4 -15 -10 0 -5 -7 -10 -15 -10 -8 0 -15
-4 -15 -9 0 -5 -8 -11 -19 -14 -14 -3 -17 0 -14 14 3 11 0 19 -6 19 -6 0 -10
-3 -10 -7 3 -21 -3 -28 -26 -28 -14 0 -25 4 -25 8 0 5 -4 5 -10 2 -5 -3 -10
-2 -10 4 0 5 6 12 13 14 6 3 7 6 1 6 -6 1 -21 -10 -34 -24 -13 -14 -27 -25
-32 -25 -5 0 -14 -5 -21 -10 -60 -51 -66 -59 -70 -104 -2 -26 0 -49 4 -52 5
-2 6 -11 3 -19 -3 -8 3 -29 14 -47 11 -18 22 -50 25 -72 4 -21 14 -47 23 -57
16 -17 15 -20 -16 -49 -25 -24 -31 -35 -26 -55 5 -20 0 -28 -29 -47 -19 -13
-35 -26 -35 -30 0 -12 8 -10 36 8 23 16 24 16 17 -2 -10 -27 -62 -98 -79 -107
-8 -4 -18 -6 -23 -3 -5 3 -17 -6 -26 -20 -14 -21 -19 -24 -26 -13 -6 9 -11 11
-16 3 -14 -19 -57 -11 -101 18 -24 15 -52 28 -63 28 -11 0 -22 7 -25 15 -4 8
-14 15 -24 15 -11 0 -21 4 -25 9 -3 5 -19 12 -35 16 -17 4 -30 11 -30 16 0 5
-11 9 -25 9 -30 0 -43 39 -26 76 16 35 14 40 -9 19 -19 -17 -20 -17 -28 5 -11
29 -19 17 -38 -53 -19 -73 -18 -102 3 -59 21 40 33 41 33 2 0 -16 10 -46 22
-67 50 -88 62 -123 38 -108 -5 3 -10 1 -10 -4 0 -6 5 -11 11 -11 5 0 7 -4 4
-10 -4 -6 5 -10 19 -10 14 0 26 -4 26 -9 0 -5 14 -23 30 -39 28 -28 29 -32 13
-47 -9 -10 -25 -15 -37 -12 -212 52 -225 63 -227 195 l-2 77 -9 -70 c-5 -38
-6 -132 -3 -207 4 -93 2 -138 -5 -138 -6 0 -10 33 -10 88 0 137 -6 156 -50
176 -49 21 -54 45 -22 93 15 22 27 54 28 78 1 22 7 87 13 145 5 58 13 182 16
276 l7 171 -88 54 c-149 92 -181 132 -200 250 -5 27 -2 38 9 42 11 4 14 2 10
-9 -4 -10 0 -12 10 -8 15 5 14 26 -3 49 -4 6 -11 25 -15 43 -11 53 11 38 52
-35 34 -63 114 -151 173 -193 35 -24 140 -50 238 -57 78 -6 82 -7 77 -27 -6
-21 -6 -21 10 -1 39 50 99 104 122 110 14 3 59 33 99 66 40 32 77 59 83 59 6
0 11 4 11 10 0 5 35 38 77 72 42 35 90 76 107 91 73 66 147 82 261 58 33 -7
84 -11 114 -9 67 6 85 25 76 83 l-7 40 26 -34 c14 -19 26 -38 26 -42z m-1822
12 c27 -23 28 -31 2 -31 -17 0 -20 -7 -20 -45 0 -40 -6 -52 -43 -93 -49 -53
-94 -122 -79 -122 5 0 34 23 63 50 30 28 59 48 66 46 6 -3 15 4 18 15 4 10 11
17 16 13 5 -3 7 -10 4 -15 -3 -5 0 -6 8 -3 8 3 19 -1 25 -9 12 -15 72 -11 72
4 0 5 18 9 40 9 43 0 50 -11 25 -44 -8 -11 -15 -32 -15 -47 0 -15 -13 -56 -30
-91 -16 -34 -30 -69 -30 -76 0 -29 -84 -185 -101 -189 -16 -5 -18 -12 -13 -47
14 -108 38 -207 74 -306 21 -60 40 -124 42 -142 3 -29 0 -33 -24 -36 -18 -2
-46 9 -85 35 -59 39 -126 73 -143 73 -45 0 64 -122 222 -249 79 -63 165 -154
241 -252 23 -31 80 -103 127 -161 47 -58 104 -132 127 -164 23 -33 79 -111
124 -174 114 -159 203 -321 154 -280 -53 44 22 -73 102 -160 110 -119 143
-158 143 -171 1 -28 28 -63 61 -78 24 -11 41 -31 60 -69 14 -28 32 -58 41 -65
27 -21 131 -265 166 -392 70 -246 101 -368 108 -422 5 -45 4 -53 -10 -53 -9 0
-19 -7 -22 -15 -4 -8 -10 -15 -15 -15 -5 0 -9 7 -9 15 0 8 -4 15 -10 15 -5 0
-10 -5 -10 -10 0 -6 -11 -16 -25 -22 -25 -11 -33 -32 -16 -43 5 -3 30 -6 55
-7 31 -2 41 -5 31 -11 -23 -12 -18 -27 9 -27 14 0 27 -4 30 -8 4 -7 274 -26
336 -24 224 8 296 14 353 28 54 13 70 14 82 4 8 -7 15 -17 15 -22 0 -19 -63
-66 -103 -77 -23 -7 -58 -19 -77 -28 -43 -20 -45 -20 -315 -10 -251 10 -282 5
-270 -41 3 -15 15 -34 25 -42 13 -10 18 -22 14 -37 -4 -16 5 -34 38 -70 23
-26 49 -52 56 -56 6 -4 12 -16 12 -27 0 -26 46 -78 84 -95 50 -22 80 -50 73
-69 -7 -17 -37 -22 -37 -6 0 6 -7 10 -15 10 -8 0 -15 5 -15 10 0 6 -6 10 -13
10 -8 0 -20 12 -27 27 -8 16 -23 41 -34 57 -18 27 -22 28 -71 22 -43 -5 -56
-2 -75 14 -28 24 -43 25 -64 5 -15 -16 -71 -23 -96 -12 -9 4 -28 -5 -48 -22
-30 -26 -32 -31 -21 -54 17 -38 6 -57 -34 -57 -19 0 -46 -9 -60 -20 -14 -11
-37 -20 -51 -20 -40 0 -60 -39 -52 -99 6 -44 4 -53 -19 -77 -14 -15 -25 -30
-25 -34 0 -14 -110 -61 -128 -56 -17 6 -62 80 -62 103 0 5 -11 20 -24 32 -24
23 -41 61 -26 61 4 0 7 11 6 25 0 16 -6 23 -13 20 -7 -2 -17 4 -23 15 -13 24
-13 87 0 95 6 3 10 16 10 29 0 20 54 187 97 298 20 51 67 94 145 134 55 28 62
37 54 69 -5 18 -15 26 -43 31 -73 14 -153 -52 -293 -241 -37 -49 -73 -105 -80
-123 -7 -18 -18 -36 -25 -40 -7 -4 -26 -34 -42 -67 -17 -33 -44 -85 -60 -115
-31 -58 -133 -311 -133 -331 0 -6 -9 -23 -20 -38 -10 -15 -31 -63 -46 -107
-14 -43 -35 -96 -45 -116 -21 -41 -55 -128 -98 -253 -15 -44 -46 -129 -69
-190 -22 -60 -53 -150 -67 -200 -15 -49 -35 -108 -45 -130 -79 -178 -78 -177
-102 -170 -13 4 -28 13 -34 21 -13 16 -35 18 -50 5 -5 -5 -19 -12 -31 -16 -17
-5 -23 -2 -23 9 0 16 -21 22 -33 9 -9 -8 22 -43 38 -43 21 0 36 -22 24 -37 -9
-9 -8 -17 1 -28 10 -12 10 -15 -1 -15 -11 0 -11 -2 1 -10 12 -8 12 -10 -3 -16
-9 -3 -27 0 -40 8 -26 18 -47 13 -47 -10 0 -34 -47 -22 -96 24 -25 24 -50 44
-55 44 -5 0 -2 11 7 25 9 14 13 32 9 45 -7 21 -43 46 -52 36 -4 -3 -13 0 -21
7 -12 9 -16 9 -19 -1 -3 -6 -9 -10 -14 -6 -5 3 -12 -1 -14 -9 -4 -8 -16 -12
-35 -9 -29 4 -90 -29 -90 -49 0 -5 -5 -16 -12 -23 -16 -16 -51 -8 -44 10 3 8
-6 21 -20 31 -22 14 -23 18 -10 25 13 7 14 13 4 31 -6 12 -19 28 -29 34 -9 7
-23 35 -30 63 -7 27 -16 50 -20 50 -4 0 -10 9 -14 19 -8 25 -104 64 -122 49
-19 -16 -58 -5 -57 15 2 21 -63 73 -86 69 -28 -5 -43 21 -29 52 11 23 17 26
51 22 27 -4 38 -1 38 8 0 24 31 76 46 76 8 0 14 5 14 10 0 6 -4 10 -10 10 -5
0 -10 19 -10 43 0 34 6 48 30 70 38 37 51 94 24 114 -15 11 -16 15 -5 22 9 6
10 11 2 15 -14 9 -3 68 15 82 8 6 14 14 14 18 0 4 11 17 25 30 14 13 25 32 25
43 0 11 11 41 25 67 14 26 25 56 25 67 0 12 9 34 21 50 11 16 21 39 21 51 1
13 6 29 11 36 5 6 6 12 2 12 -3 0 3 15 14 34 16 25 23 58 27 118 3 46 14 104
25 130 26 64 24 100 -10 195 -17 44 -27 83 -24 87 4 3 1 6 -5 6 -7 0 -12 -11
-12 -25 0 -20 -5 -25 -24 -25 -24 0 -51 -22 -40 -33 5 -5 -17 -19 -116 -71
-14 -8 -43 -22 -65 -32 -22 -10 -42 -21 -45 -24 -3 -4 -21 -12 -40 -20 -19 -8
-55 -28 -80 -45 -54 -35 -76 -48 -150 -87 -30 -16 -77 -43 -105 -58 -27 -16
-58 -30 -67 -30 -9 0 -38 -18 -65 -40 -26 -22 -53 -45 -59 -50 -22 -17 -89
-50 -102 -50 -7 0 -30 -9 -51 -19 -27 -14 -66 -21 -131 -24 l-93 -5 -39 40
c-21 21 -45 50 -54 64 -9 13 -21 24 -26 24 -14 0 1 -63 18 -76 10 -8 13 -24 9
-55 -3 -24 -6 -57 -6 -73 0 -16 -4 -35 -10 -42 -6 -7 -8 -18 -5 -23 4 -6 11
-50 16 -98 16 -156 41 -249 90 -331 11 -18 21 -47 23 -65 2 -29 -1 -32 -23
-29 -35 4 -78 49 -92 97 -7 22 -27 65 -44 97 -18 31 -43 87 -57 125 -84 227
-118 316 -131 335 -7 13 -22 57 -31 98 -10 41 -35 137 -56 214 -21 76 -46 191
-54 255 -9 64 -23 161 -30 216 -8 55 -15 194 -16 308 l-1 208 31 63 c16 34 62
96 100 138 38 42 105 128 147 190 77 112 215 258 299 318 36 24 42 35 53 87 7
33 12 78 12 100 0 53 25 83 86 103 49 17 49 17 60 76 15 80 21 91 54 102 22 8
34 6 58 -8 16 -10 33 -23 36 -29 4 -6 21 -11 37 -11 18 0 28 4 24 10 -10 17
21 57 50 64 28 7 57 -5 95 -40 25 -23 158 -89 166 -82 2 3 0 18 -5 35 -13 46
0 96 30 110 22 10 36 10 79 -3 72 -21 118 -52 173 -116 43 -49 47 -51 47 -27
0 14 -7 47 -14 74 -17 55 -31 155 -22 155 13 0 124 -91 172 -142 28 -29 80
-102 114 -161 35 -59 66 -107 70 -107 4 0 13 -15 21 -32 18 -46 52 -98 64 -98
6 0 22 -27 38 -60 15 -32 32 -62 37 -65 6 -3 10 -15 10 -25 0 -10 4 -20 8 -22
8 -3 120 -160 147 -206 6 -9 12 -19 15 -22 27 -27 130 -218 130 -241 0 -22 79
-120 110 -137 43 -24 100 -37 100 -24 0 6 -16 32 -36 57 -40 53 -103 153 -132
212 -11 21 -43 79 -72 128 -58 99 -78 140 -111 230 -22 61 -38 100 -63 158
-22 49 -37 136 -30 172 3 18 19 47 35 64 16 18 29 35 29 39 0 4 10 19 23 35
l22 27 40 -20 c22 -11 56 -34 75 -51 19 -18 69 -57 110 -87 41 -31 89 -70 105
-89 17 -18 34 -33 38 -33 11 0 69 -42 84 -60 6 -8 15 -12 19 -8 4 4 13 0 20
-10 12 -16 14 -16 33 5 24 25 27 39 9 45 -21 7 0 41 22 35 11 -3 20 -1 20 3 0
5 16 12 35 16 20 3 48 19 63 34 23 23 38 28 105 33 43 4 86 11 95 16 9 4 34
11 55 15 28 5 37 4 37 -7 0 -24 26 -51 44 -44 15 6 15 9 1 37 -8 16 -20 30
-26 30 -6 0 -36 22 -67 49 -66 57 -114 82 -197 106 -33 10 -94 30 -135 45
-303 112 -875 248 -1263 300 -398 54 -663 1 -900 -179 -79 -60 -81 -63 -133
-139 -33 -48 -36 -59 -35 -117 1 -38 -3 -65 -9 -65 -5 0 -10 4 -10 10 0 5 -12
26 -26 47 -48 70 -30 145 103 408 24 47 64 102 123 164 l88 93 -5 97 c-3 53
-1 125 5 161 20 118 41 214 62 290 11 41 25 96 30 122 12 60 72 225 110 303
16 33 62 105 101 160 39 55 85 121 102 148 33 52 49 57 100 31 34 -18 77 -59
77 -74 0 -5 -19 -19 -41 -31 -51 -25 -168 -141 -209 -206 -54 -84 -41 -126 55
-185 78 -48 137 -61 259 -56 150 7 256 37 350 98 l73 48 29 -18 c22 -14 53
-19 121 -21 51 -2 96 0 100 4 4 4 -5 32 -20 63 -28 56 -35 108 -17 119 6 3 10
41 10 83 0 42 5 84 10 92 6 10 3 21 -11 37 -20 20 -20 24 -6 50 8 15 20 48 27
72 13 48 13 49 82 124 26 29 48 55 48 60 0 4 9 7 20 7 18 0 20 4 15 33 -5 26
1 43 34 95 23 34 41 66 41 69 0 6 30 43 35 43 1 0 12 -8 23 -19z m2988 4 c4
-8 10 -13 14 -10 4 3 13 -2 19 -9 10 -11 8 -16 -10 -21 -23 -8 -49 15 -49 42
0 18 19 16 26 -2z m-2530 -236 c14 -21 40 -44 57 -53 18 -8 26 -16 19 -16 -47
-1 -145 83 -158 135 -5 20 0 33 17 51 l24 26 8 -53 c4 -31 19 -70 33 -90z
m1735 90 c15 -7 24 -7 34 1 11 9 23 1 57 -36 24 -26 49 -53 56 -60 11 -11 8
-15 -13 -20 -15 -4 -36 -1 -48 5 -74 40 -112 71 -121 99 -8 25 4 28 35 11z
m649 -43 c0 -26 -53 -78 -98 -97 -24 -11 -45 -19 -47 -19 -7 0 131 130 138
130 4 0 7 -6 7 -14z m140 6 c0 -4 -9 -32 -20 -62 -33 -91 -194 -230 -265 -230
-31 0 -37 11 -23 47 8 23 21 33 55 42 62 19 113 60 174 140 48 61 79 87 79 63z
m-3862 -124 c14 -14 16 -88 3 -88 -5 0 -11 4 -13 9 -1 5 -33 12 -70 15 -65 5
-116 21 -104 33 11 12 112 42 142 42 16 1 35 -4 42 -11z m532 -27 c8 -16 4
-26 -24 -56 -28 -29 -40 -35 -58 -29 -45 14 -52 54 -9 54 25 0 28 3 23 25 -4
22 -1 25 26 25 21 0 35 -7 42 -19z m4535 -31 c-13 -14 -31 -20 -60 -20 -48 0
-60 7 -44 27 7 8 33 13 67 13 54 0 55 0 37 -20z m-5017 -64 c18 -22 20 -56 6
-71 -32 -32 -138 -31 -165 1 -25 30 -18 43 24 55 23 6 53 16 67 23 27 13 54
10 68 -8z m3971 -21 c36 -42 45 -72 37 -123 -4 -20 -10 -80 -14 -133 -4 -53
-12 -102 -18 -110 -6 -8 -14 -30 -17 -49 -3 -19 -8 -42 -12 -51 -4 -10 4 -28
20 -47 29 -35 25 -59 -14 -69 -14 -3 -32 -12 -39 -20 -7 -7 -28 -13 -47 -13
-28 0 -35 5 -44 31 -14 42 -14 41 10 34 19 -6 20 -5 9 14 -9 17 -7 38 9 99 28
110 60 293 68 389 3 46 9 83 13 83 5 0 22 -16 39 -35z m-872 9 c8 -20 -13 -42
-27 -28 -12 12 -3 44 11 44 5 0 12 -7 16 -16z m-2739 -30 c18 -5 23 -13 20
-33 -1 -14 2 -32 6 -40 5 -8 4 -16 -4 -21 -7 -4 -10 -14 -7 -22 3 -8 2 -19 -1
-24 -10 -13 -60 -34 -82 -34 -17 0 -19 5 -13 33 3 17 17 41 30 53 22 18 22 22
9 34 -19 15 -20 32 -4 48 14 14 15 14 46 6z m-278 -178 c0 -11 -19 -15 -25 -6
-3 5 1 10 9 10 9 0 16 -2 16 -4z m2790 -70 c0 -3 -4 -8 -10 -11 -5 -3 -10 -1
-10 4 0 6 5 11 10 11 6 0 10 -2 10 -4z m8 -36 c15 -1 15 -2 0 -11 -10 -5 -18
-15 -18 -20 0 -6 4 -8 9 -4 17 10 22 -13 6 -29 -20 -19 -20 -27 -3 -37 10 -7
10 -9 -2 -9 -9 0 -22 6 -29 13 -11 10 -13 9 -8 -5 8 -24 -5 -23 -20 1 -10 16
-9 22 4 33 9 7 18 12 20 11 1 -2 3 0 2 5 -1 4 -5 6 -10 5 -11 -3 -12 40 -2 51
4 3 13 4 21 1 7 -3 21 -5 30 -5z m1831 -89 c22 -36 47 -83 54 -105 8 -23 26
-79 42 -126 15 -47 33 -94 40 -106 8 -12 17 -38 21 -58 3 -21 14 -59 23 -84
14 -39 24 -51 61 -69 378 -186 559 -278 578 -296 23 -21 28 -52 13 -76 -7 -11
-16 -7 -43 20 -55 55 -142 94 -200 92 -133 -6 -330 -157 -478 -367 -14 -20
-33 -38 -43 -42 -9 -3 -24 -22 -33 -42 -17 -41 -51 -82 -69 -82 -6 0 -22 -23
-35 -51 -12 -29 -41 -78 -63 -110 -39 -56 -57 -72 -57 -48 0 5 -5 7 -11 4 -6
-4 -8 -13 -5 -21 7 -17 -10 -29 -17 -12 -6 14 -30 -10 -87 -89 -19 -26 -37
-50 -40 -53 -3 -3 -18 -21 -34 -40 -16 -19 -34 -35 -40 -35 -6 0 -21 -21 -34
-47 -24 -50 -52 -64 -52 -27 0 13 8 23 21 26 14 4 19 12 17 27 -2 13 -9 19
-18 17 -44 -13 -178 17 -186 41 -3 10 -14 23 -25 29 -20 10 -20 11 5 36 30 29
32 41 11 49 -26 10 -18 42 12 46 20 2 33 13 47 41 17 32 24 37 44 32 17 -4 28
0 38 12 18 25 17 30 -7 44 -20 10 -21 9 -15 -17 5 -23 4 -26 -4 -11 -6 9 -19
17 -29 17 -11 0 -21 7 -25 15 -4 11 -14 13 -36 8 -41 -8 -82 14 -78 42 1 12
-9 34 -25 50 -32 35 -34 55 -8 77 11 9 25 34 30 55 6 22 24 52 41 68 16 16 30
33 30 38 0 6 11 25 25 43 14 18 25 38 25 44 0 7 11 21 25 32 14 11 25 30 25
44 0 20 -5 24 -32 24 -18 0 -41 -9 -53 -20 -18 -17 -30 -19 -63 -14 -23 4 -39
10 -36 15 3 5 0 9 -5 9 -6 0 -11 7 -11 15 0 9 -11 20 -24 25 -20 7 -24 15 -21
37 5 40 6 40 14 19 5 -12 19 -20 45 -22 21 -2 44 -8 52 -15 8 -6 21 -8 31 -4
10 5 22 7 27 6 9 -2 26 18 26 32 0 13 -28 7 -33 -7 -4 -9 -17 -14 -34 -12 -20
2 -29 9 -31 26 -2 13 -10 29 -17 37 -16 15 -55 18 -55 3 0 -5 -5 -10 -11 -10
-16 0 -3 59 19 85 21 24 50 83 54 110 2 12 21 28 50 42 25 12 52 30 60 40 21
29 60 44 124 47 70 4 115 22 129 54 9 20 17 22 78 22 72 0 124 -20 214 -81 23
-16 48 -29 55 -29 23 0 55 28 86 75 25 38 29 50 22 78 -45 170 -68 244 -98
317 -38 94 -56 149 -43 134 5 -5 27 -38 50 -73z m-1639 -181 c0 -5 -2 -10 -4
-10 -3 0 -8 5 -11 10 -3 6 -1 10 4 10 6 0 11 -4 11 -10z m-1543 -117 c-3 -10
-5 -4 -5 12 0 17 2 24 5 18 2 -7 2 -21 0 -30z m3661 -674 c29 -28 52 -52 52
-54 0 -2 25 -28 55 -59 30 -30 55 -57 55 -60 0 -12 -40 9 -45 23 -3 10 -17 24
-30 31 -14 7 -25 20 -25 28 0 10 -7 12 -25 8 -28 -7 -111 30 -146 65 l-21 21
23 24 c12 13 30 24 39 24 9 0 39 -23 68 -51z m218 -285 c-8 -22 -22 -9 -32 31
l-6 30 22 -22 c15 -14 20 -27 16 -39z m-3571 -138 c0 -30 -31 -44 -51 -24 -15
14 -15 20 -4 33 18 21 55 15 55 -9z m1883 1 c2 -10 -3 -17 -11 -17 -16 0 -30
24 -19 34 10 10 27 1 30 -17z m162 -17 c0 -5 -7 -10 -15 -10 -8 0 -15 5 -15
10 0 6 7 10 15 10 8 0 15 -4 15 -10z m130 -130 c0 -11 -4 -20 -8 -20 -4 0 -8
9 -8 20 0 11 4 20 8 20 4 0 8 -9 8 -20z m1381 -92 c34 -35 81 -93 104 -129 24
-36 55 -75 69 -86 60 -48 71 -118 30 -189 l-26 -44 27 -10 c34 -13 112 -1 220
34 44 14 92 26 107 26 92 0 186 -85 339 -309 83 -121 198 -229 450 -419 92
-69 218 -191 254 -246 39 -60 55 -192 40 -335 -22 -205 -34 -253 -52 -203 -4
9 -9 19 -13 22 -3 3 -45 57 -92 120 -104 138 -111 145 -168 190 -24 19 -72 59
-105 89 -63 57 -108 81 -150 81 -43 0 -33 -52 32 -177 31 -59 69 -146 85 -192
31 -91 102 -403 111 -490 6 -46 4 -54 -13 -58 -10 -3 -24 -19 -31 -36 -7 -17
-37 -55 -66 -85 -29 -30 -53 -61 -53 -67 0 -26 -26 -36 -70 -26 -40 9 -44 8
-78 -26 -35 -35 -35 -35 -18 -64 10 -16 16 -37 15 -47 -2 -9 0 -26 4 -38 9
-25 -16 -89 -38 -98 -12 -4 -15 -17 -13 -53 3 -47 4 -48 35 -46 41 4 46 -6 27
-53 -12 -30 -13 -46 -5 -79 10 -40 9 -47 -17 -125 -4 -12 -6 -10 -10 5 -2 10
-10 28 -18 40 -7 11 -15 43 -18 70 -7 70 -32 147 -56 175 -11 13 -23 35 -27
49 -10 42 -85 184 -110 208 -13 12 -23 30 -23 40 0 11 -9 36 -20 58 -11 22
-20 44 -20 51 0 6 -7 17 -15 24 -8 7 -15 20 -15 29 0 9 -16 34 -35 56 -19 22
-39 54 -44 71 -8 29 -140 216 -162 230 -5 3 -32 39 -60 80 -128 190 -418 426
-615 500 -78 29 -217 57 -245 49 -10 -3 -28 -8 -39 -11 -13 -3 -20 -1 -20 9 0
9 38 35 88 60 81 42 129 82 197 162 14 17 25 35 25 42 0 7 6 16 13 20 14 9 26
28 61 93 13 25 72 94 131 153 58 60 113 123 120 140 8 18 26 46 42 63 15 17
49 74 76 126 73 147 66 151 -53 38 -79 -75 -166 -130 -204 -130 -26 0 -20 87
13 187 46 143 49 196 11 186 -29 -8 -42 45 -23 99 8 23 18 91 20 151 4 79 9
107 19 107 7 0 41 -28 75 -62z m-1402 -107 c8 -5 11 -16 7 -26 -6 -17 -16 -19
-13 -3 1 4 -7 14 -18 22 -15 12 -16 15 -5 16 8 0 21 -4 29 -9z m51 -85 c0 -11
-19 -15 -25 -6 -3 5 1 10 9 10 9 0 16 -2 16 -4z m150 -90 c0 -28 -12 -46 -31
-46 -10 0 -19 -6 -19 -14 0 -24 -16 -27 -42 -6 -14 10 -36 22 -51 25 l-26 7
26 24 c21 20 36 24 84 24 44 0 59 -4 59 -14z m-83 -131 c-4 -8 -11 -15 -17
-15 -7 0 -7 6 0 21 13 23 26 19 17 -6z m-319 -819 c5 -23 -23 -46 -55 -46 -19
0 -23 5 -23 29 0 20 6 31 18 34 32 9 57 2 60 -17z m-74 -160 c37 -140 34 -194
-9 -162 -13 9 -21 40 -32 122 -14 107 -11 166 7 148 5 -5 20 -53 34 -108z
m-1309 57 c-2 -10 -4 -24 -4 -30 -1 -7 -5 -13 -9 -13 -4 0 -7 12 -6 28 3 34 2
32 13 32 5 0 8 -8 6 -17z m1410 -41 c0 -18 -20 -15 -23 4 -3 10 1 15 10 12 7
-3 13 -10 13 -16z m616 -7 c24 -9 64 -32 89 -51 41 -33 49 -35 90 -29 52 8
171 14 153 8 -42 -15 41 -91 105 -97 22 -2 53 -13 68 -25 25 -18 117 -56 194
-80 77 -25 194 -103 259 -173 38 -42 77 -118 61 -118 -6 0 -10 7 -10 15 0 8
-4 15 -10 15 -14 0 -13 -8 10 -73 11 -31 20 -63 20 -70 0 -22 -70 -45 -101
-34 -24 9 -26 14 -25 66 2 109 -23 142 -92 120 -119 -38 -159 -53 -177 -69
-23 -21 -71 -38 -61 -22 7 12 -29 26 -43 17 -6 -3 -8 -12 -4 -21 11 -29 -27
-43 -99 -37 -52 4 -71 1 -82 -10 -8 -8 -41 -18 -73 -22 -32 -4 -65 -13 -73
-19 -36 -31 -181 -56 -203 -35 -21 20 50 91 129 128 35 16 81 42 101 57 54 39
133 116 133 129 0 6 6 17 12 23 31 31 43 232 14 232 -6 0 -24 -7 -40 -15 -27
-14 -29 -14 -48 10 -14 18 -24 23 -35 17 -23 -13 -119 6 -176 35 -59 30 -138
53 -182 53 -17 0 -41 7 -54 16 l-23 16 28 29 c32 34 76 38 145 14z m-316 -55
c0 -22 -4 -25 -35 -25 -43 0 -55 30 -18 45 35 14 53 8 53 -20z m-831 -71 c10
-54 7 -237 -5 -245 -21 -13 -32 16 -50 138 -23 153 -22 146 -1 151 28 6 49
-10 56 -44z m99 -102 c9 -24 -8 -92 -23 -92 -11 0 -16 14 -18 53 -3 46 -1 52
16 52 11 0 22 -6 25 -13z m-77 -281 c7 -28 -2 -49 -17 -41 -12 8 -12 65 1 65
5 0 12 -11 16 -24z m75 -49 c-1 -12 -15 -9 -19 4 -3 6 1 10 8 8 6 -3 11 -8 11
-12z m607 -409 c18 -18 15 -43 -8 -63 -16 -15 -22 -15 -35 -5 -19 16 -19 30 1
58 17 25 25 27 42 10z m2852 -633 c0 -16 4 -23 13 -19 18 6 70 -35 63 -51 -2
-7 1 -18 7 -24 8 -8 5 -11 -11 -11 -12 0 -22 -5 -22 -11 0 -6 -7 -9 -15 -5 -9
3 -15 0 -15 -9 0 -9 6 -12 15 -9 10 4 15 0 15 -10 0 -9 11 -21 25 -26 14 -5
25 -15 25 -21 0 -8 -5 -8 -15 1 -12 10 -19 10 -27 2 -7 -7 -9 -14 -7 -17 7 -6
50 -9 69 -4 10 3 16 -5 18 -23 2 -16 -1 -28 -7 -28 -16 0 -13 -26 4 -40 9 -7
13 -21 10 -31 -4 -11 2 -22 14 -31 14 -10 20 -28 22 -76 3 -42 0 -62 -7 -62
-7 0 -14 9 -17 20 -7 26 -27 26 -34 0 -3 -11 -11 -20 -18 -20 -8 0 -17 -9 -20
-20 -8 -24 -21 -26 -33 -4 -6 11 -12 13 -16 6 -5 -8 -13 -6 -26 5 -14 13 -16
20 -9 30 6 7 16 10 22 6 6 -4 8 2 4 18 -4 13 -7 31 -8 39 0 8 -4 5 -7 -8 -7
-23 -27 -27 -27 -6 0 6 -6 19 -14 28 -8 9 -11 26 -7 41 5 20 3 23 -11 18 -11
-4 -14 -3 -9 5 4 7 2 12 -4 12 -6 0 -8 5 -5 10 3 6 1 10 -6 10 -7 0 -9 3 -6 7
4 3 1 13 -6 21 -10 13 -9 15 6 9 9 -3 17 -5 17 -4 0 1 -7 23 -14 49 -15 47
-14 135 1 176 9 24 54 81 66 82 4 0 7 -11 7 -25z m-80 -239 c0 -3 -4 -8 -10
-11 -5 -3 -10 -1 -10 4 0 6 5 11 10 11 6 0 10 -2 10 -4z m160 -432 c4 -24 11
-30 35 -32 17 -2 37 -4 46 -5 9 -1 16 -6 17 -12 0 -5 4 -28 7 -50 6 -32 3 -45
-15 -67 -18 -24 -28 -27 -71 -27 l-49 2 -2 71 c-1 39 -2 87 -3 106 0 19 1 39
3 43 8 17 27 -1 32 -29z m-1900 -9 c0 -33 1 -34 29 -29 41 9 71 -23 71 -76 0
-63 -43 -95 -91 -70 -13 7 -19 7 -19 0 0 -5 -4 -10 -10 -10 -6 0 -10 43 -10
110 0 91 3 110 15 110 10 0 15 -11 15 -35z m161 -22 c0 -32 2 -82 4 -110 3
-42 1 -53 -10 -53 -12 0 -15 20 -15 110 0 67 4 110 10 110 6 0 10 -26 11 -57z
m331 -51 l3 -109 -44 -1 c-79 -1 -118 71 -70 132 22 27 57 34 77 14 9 -9 12
-3 12 30 0 23 4 42 9 42 6 0 11 -49 13 -108z m68 93 c0 -8 -4 -15 -10 -15 -5
0 -10 7 -10 15 0 8 5 15 10 15 6 0 10 -7 10 -15z m110 6 c0 -5 -9 -11 -20 -14
-33 -8 -25 -37 10 -37 22 0 30 5 30 18 0 23 19 42 42 42 24 0 23 -16 -2 -23
-23 -6 -27 -37 -5 -37 8 0 15 -4 15 -10 0 -5 -7 -10 -15 -10 -12 0 -15 -14
-15 -70 0 -40 -4 -70 -10 -70 -6 0 -10 30 -10 70 l0 70 -30 0 -30 0 0 -70 c0
-40 -4 -70 -10 -70 -6 0 -10 29 -10 66 0 52 -4 70 -17 80 -17 13 -17 13 0 14
10 0 17 8 17 18 0 10 5 23 12 30 14 14 48 16 48 3z m430 -6 c0 -8 -4 -15 -10
-15 -5 0 -10 7 -10 15 0 8 5 15 10 15 6 0 10 -7 10 -15z m-1350 -25 c0 -11 7
-20 15 -20 8 0 15 -4 15 -10 0 -5 -7 -10 -15 -10 -12 0 -15 -13 -15 -55 0 -40
4 -57 15 -61 23 -9 18 -26 -7 -22 -21 3 -23 9 -26 68 -2 35 -8 68 -15 73 -9 7
-9 10 1 14 6 2 12 13 12 24 0 10 5 19 10 19 6 0 10 -9 10 -20z m2227 -5 c0 -8
-4 -12 -9 -9 -5 3 -6 10 -3 15 9 13 12 11 12 -6z m-2330 -21 c21 -6 39 -32 28
-42 -3 -3 -14 3 -24 12 -22 20 -56 18 -56 -4 0 -9 17 -21 40 -28 37 -12 54
-26 55 -44 0 -17 -41 -48 -63 -48 -28 0 -69 28 -61 41 4 6 13 4 24 -6 22 -20
64 -16 68 6 2 12 -9 21 -40 31 -49 16 -64 52 -32 75 20 14 29 15 61 7z m255
-6 c11 -9 17 -34 20 -80 4 -63 -2 -82 -17 -58 -4 6 -15 5 -30 -2 -32 -14 -72
-3 -80 23 -9 28 14 50 62 58 46 8 58 37 18 47 -18 4 -32 1 -45 -11 -22 -20
-34 -16 -24 8 10 26 70 35 96 15z m391 1 c28 -15 37 -28 37 -56 0 -21 -5 -23
-55 -23 -57 0 -66 -8 -39 -34 19 -20 38 -20 58 -1 8 8 19 15 25 15 18 0 12
-18 -11 -34 -57 -40 -125 5 -114 74 5 36 36 70 63 70 8 0 24 -5 36 -11z m267
-69 c0 -47 -4 -80 -10 -80 -6 0 -10 33 -10 80 0 47 4 80 10 80 6 0 10 -33 10
-80z m232 19 c2 -46 8 -65 21 -73 33 -21 52 4 55 73 4 90 22 75 22 -19 0 -47
-4 -80 -10 -80 -5 0 -10 4 -10 10 0 6 -10 5 -25 -2 -19 -9 -29 -8 -50 6 -22
15 -25 23 -25 81 0 83 18 85 22 4z m215 55 c21 -6 39 -32 28 -42 -3 -3 -14 3
-24 12 -23 21 -54 18 -59 -6 -2 -12 6 -19 33 -24 36 -6 65 -27 65 -45 0 -17
-40 -49 -63 -49 -28 0 -69 28 -61 41 4 6 13 4 24 -6 22 -20 64 -16 68 6 2 12
-9 21 -40 31 -49 16 -64 52 -32 75 20 14 29 15 61 7z m95 -46 c1 -29 2 -64 2
-77 1 -13 -5 -26 -12 -29 -9 -3 -12 17 -12 77 0 90 19 114 22 29z m156 36 c18
-12 22 -25 22 -64 0 -54 -22 -80 -68 -80 -33 0 -72 43 -72 80 0 37 39 80 72
80 13 0 34 -7 46 -16z m177 0 c21 -22 22 -144 0 -144 -12 0 -15 13 -15 60 0
47 -4 61 -18 69 -35 19 -52 -4 -52 -69 0 -47 -3 -60 -15 -60 -12 0 -15 15 -15
78 l0 77 50 2 c33 2 54 -3 65 -13z m66 -29 c14 -57 26 -64 34 -23 12 59 16 68
34 68 13 0 21 -14 31 -57 l13 -58 16 58 c11 43 19 57 34 57 10 0 16 -3 14 -7
-3 -5 -15 -41 -26 -80 -17 -57 -26 -73 -41 -73 -13 0 -20 10 -25 38 -10 63
-20 66 -34 12 -19 -74 -41 -68 -65 18 -11 37 -21 73 -24 80 -2 6 3 12 12 12
10 0 20 -15 27 -45z m317 33 c5 -7 13 -28 17 -45 l7 -33 -61 0 c-34 0 -61 -4
-61 -8 0 -27 55 -43 77 -21 6 6 18 9 27 7 15 -3 15 -5 1 -25 -21 -30 -86 -32
-115 -3 -29 29 -28 103 2 124 27 19 92 21 106 4z m417 -10 c14 -21 14 -23 -2
-27 -9 -2 -19 2 -21 8 -2 6 -15 11 -28 11 -33 0 -52 -40 -36 -75 13 -28 56
-35 66 -10 6 17 36 21 36 5 0 -21 -41 -50 -70 -50 -43 0 -70 31 -70 80 0 51
27 80 74 80 25 0 40 -7 51 -22z m154 -4 c43 -55 11 -134 -55 -134 -47 0 -74
29 -74 80 0 51 27 80 74 80 25 0 40 -7 55 -26z m145 17 c4 -5 19 -4 36 2 50
19 64 2 68 -82 2 -59 0 -71 -13 -71 -12 0 -15 13 -15 64 0 67 -9 81 -42 64
-14 -7 -18 -22 -18 -68 0 -47 -3 -60 -15 -60 -12 0 -15 14 -15 64 0 67 -9 81
-42 64 -14 -7 -18 -22 -18 -68 0 -47 -3 -60 -15 -60 -12 0 -15 15 -15 78 l0
78 49 2 c28 1 52 -2 55 -7z m-464 -136 c0 -8 -9 -15 -20 -15 -11 0 -20 7 -20
15 0 8 9 15 20 15 11 0 20 -7 20 -15z"/>
<path d="M4430 6650 c-8 -5 -11 -12 -7 -16 4 -4 15 0 24 9 18 18 8 23 -17 7z"/>
<path d="M4275 6639 c-11 -16 -1 -19 13 -3 7 8 8 14 3 14 -5 0 -13 -5 -16 -11z"/>
<path d="M4397 6587 c-3 -8 -1 -20 4 -28 6 -10 9 -7 9 14 0 29 -5 35 -13 14z"/>
<path d="M5467 6788 c-15 -40 -16 -49 -5 -78 9 -29 11 -29 24 -13 15 20 19 73
5 73 -5 0 -11 8 -14 18 -4 16 -4 16 -10 0z"/>
<path d="M4738 6003 c-21 -5 -24 -43 -4 -43 8 0 23 -3 33 -6 15 -5 15 -4 3 5
-13 9 -13 11 2 11 9 0 20 -4 23 -10 3 -5 10 -10 16 -10 15 0 10 19 -11 40 -20
20 -29 22 -62 13z"/>
<path d="M4800 5909 c0 -5 5 -7 10 -4 6 3 10 8 10 11 0 2 -4 4 -10 4 -5 0 -10
-5 -10 -11z"/>
<path d="M5410 5871 c0 -5 5 -13 10 -16 6 -3 10 -2 10 4 0 5 -4 13 -10 16 -5
3 -10 2 -10 -4z"/>
<path d="M3861 5424 c0 -11 3 -14 6 -6 3 7 2 16 -1 19 -3 4 -6 -2 -5 -13z"/>
<path d="M3851 5384 c0 -11 3 -14 6 -6 3 7 2 16 -1 19 -3 4 -6 -2 -5 -13z"/>
<path d="M4265 5380 c3 -5 13 -10 21 -10 8 0 12 5 9 10 -3 6 -13 10 -21 10 -8
0 -12 -4 -9 -10z"/>
<path d="M4278 5253 c7 -3 16 -2 19 1 4 3 -2 6 -13 5 -11 0 -14 -3 -6 -6z"/>
<path d="M4425 5200 c-3 -5 -2 -10 4 -10 5 0 13 5 16 10 3 6 2 10 -4 10 -5 0
-13 -4 -16 -10z"/>
<path d="M2460 5309 c-45 -11 -118 -20 -181 -21 -117 -3 -141 -13 -154 -66 -4
-18 -9 -22 -14 -13 -8 13 -17 -3 -30 -59 -4 -16 -14 -26 -28 -28 -14 -2 -22
-10 -21 -20 2 -32 -2 -52 -12 -52 -5 0 -10 7 -10 15 0 8 -5 15 -10 15 -6 0
-13 -7 -16 -15 -4 -8 -15 -15 -25 -15 -10 0 -19 -5 -19 -11 0 -6 -6 -9 -14 -6
-7 3 -13 0 -12 -6 2 -18 -24 -140 -34 -158 -11 -21 -2 -59 15 -59 20 0 70 28
91 52 11 13 35 46 53 75 38 60 180 194 263 247 31 20 87 50 125 68 76 36 143
79 122 77 -8 -1 -48 -10 -89 -20z"/>
<path d="M1798 4083 c7 -3 16 -2 19 1 4 3 -2 6 -13 5 -11 0 -14 -3 -6 -6z"/>
<path d="M2570 3728 c0 -23 11 -48 21 -48 14 0 11 24 -6 46 -12 16 -14 17 -15
2z"/>
<path d="M3646 3688 c-9 -34 -8 -38 12 -38 15 0 18 6 14 30 -5 36 -17 39 -26
8z"/>
<path d="M2175 3581 c-7 -12 12 -24 25 -16 11 7 4 25 -10 25 -5 0 -11 -4 -15
-9z"/>
<path d="M2386 3502 c-3 -6 -1 -14 5 -17 15 -10 25 3 12 16 -7 7 -13 7 -17 1z"/>
<path d="M1562 3412 c-41 -39 -41 -65 4 -127 41 -58 51 -63 120 -64 28 -1 69
-7 90 -15 53 -19 193 -101 288 -169 43 -32 90 -60 103 -63 28 -7 163 12 176
25 5 5 -1 27 -12 49 -26 51 -26 55 -2 47 23 -7 39 14 20 26 -11 6 -10 9 4 15
21 8 12 24 -13 24 -29 0 -184 76 -277 135 -12 8 -88 42 -170 76 -125 53 -159
63 -223 67 -73 4 -77 3 -108 -26z"/>
<path d="M2486 3363 c8 -48 14 -53 42 -42 29 11 28 24 -4 54 -37 34 -46 31
-38 -12z"/>
<path d="M2720 3353 c0 -12 5 -25 10 -28 13 -8 13 15 0 35 -8 12 -10 11 -10
-7z"/>
<path d="M2748 3239 c-20 -34 -23 -74 -8 -84 6 -3 10 -14 9 -23 0 -14 -2 -14
-11 3 -13 27 -57 60 -89 68 -22 6 -28 3 -33 -16 -3 -13 -1 -39 4 -57 13 -45
-3 -72 -38 -68 -15 2 -29 5 -32 8 -17 18 -61 39 -73 34 -8 -3 -21 1 -28 8 -23
23 -49 29 -49 12 0 -8 -4 -13 -9 -9 -5 3 -12 1 -16 -5 -3 -6 0 -13 7 -15 10
-4 13 -19 11 -50 l-4 -45 45 0 c53 0 148 20 157 33 4 6 22 7 40 3 19 -4 83 -9
143 -13 l108 -6 -7 23 c-12 37 -79 185 -95 208 l-15 22 -17 -31z"/>
<path d="M1705 3065 c36 -30 45 -31 45 -6 0 11 -9 21 -22 25 -46 12 -53 6 -23
-19z"/>
<path d="M1767 3034 c6 -15 82 -54 105 -54 6 0 3 9 -6 19 -10 11 -25 17 -34
14 -10 -4 -13 -2 -8 5 5 8 0 12 -13 12 -12 0 -21 5 -21 10 0 6 -7 10 -15 10
-9 0 -12 -6 -8 -16z"/>
<path d="M1996 2559 c-35 -10 -66 -37 -66 -58 0 -12 -9 -16 -32 -16 -24 0 -32
-4 -31 -15 4 -21 -46 -43 -64 -29 -15 13 -43 -4 -43 -27 0 -8 -7 -14 -15 -14
-8 0 -15 -7 -15 -15 0 -17 -16 -21 -22 -5 -6 16 -81 -7 -100 -32 -10 -13 -17
-27 -17 -33 0 -5 3 -5 5 2 4 8 15 8 40 1 19 -5 49 -6 65 -3 18 4 36 2 44 -5
11 -9 15 -9 15 -1 0 6 7 11 15 11 11 0 14 7 9 24 -7 28 11 43 31 26 11 -9 22
-3 53 28 22 22 42 48 45 59 4 16 5 16 6 1 1 -20 45 -26 56 -8 4 6 21 8 38 5
27 -5 37 -1 60 23 18 19 25 32 18 36 -6 4 -11 16 -11 27 0 10 -3 19 -7 20 -5
0 -17 2 -28 4 -11 1 -33 -1 -49 -6z m-136 -139 c0 -5 -4 -10 -10 -10 -5 0 -10
5 -10 10 0 6 5 10 10 10 6 0 10 -4 10 -10z"/>
<path d="M3105 2242 c-11 -2 -24 -8 -29 -13 -6 -5 -18 -9 -27 -9 -10 0 -19 -4
-21 -10 -1 -5 -29 -17 -61 -25 -32 -8 -65 -21 -72 -28 -8 -6 -36 -28 -63 -47
-74 -51 -113 -139 -118 -260 -2 -36 -8 -101 -14 -145 -27 -204 -30 -238 -20
-250 8 -10 17 -39 19 -68 1 -5 5 -6 10 -3 5 3 7 15 4 26 -4 16 0 20 19 20 22
0 41 13 109 76 9 8 19 28 23 44 6 31 17 47 77 109 19 20 38 43 42 51 4 8 14
26 22 40 19 32 19 74 1 89 -21 18 -14 46 20 74 25 21 30 32 26 56 -3 21 2 34
17 47 12 10 21 27 21 38 0 11 11 32 25 46 15 15 27 41 29 61 2 19 4 39 6 44 8
31 -9 45 -45 37z"/>
<path d="M1686 2224 c-4 -10 -1 -14 6 -12 15 5 23 28 10 28 -5 0 -13 -7 -16
-16z"/>
<path d="M3051 461 c-11 -7 -9 -11 8 -20 26 -14 61 -6 61 15 0 16 -46 19 -69
5z"/>
<path d="M6271 5498 c-1 -16 4 -28 9 -28 12 0 12 8 0 35 -8 18 -9 17 -9 -7z"/>
<path d="M6560 4794 c0 -8 5 -12 10 -9 6 3 10 10 10 16 0 5 -4 9 -10 9 -5 0
-10 -7 -10 -16z"/>
<path d="M6859 4761 c-58 -38 -139 -115 -139 -133 0 -20 -46 -65 -88 -87 -38
-19 -131 -106 -159 -149 -14 -20 -14 -27 1 -65 10 -26 28 -50 46 -60 17 -10
30 -22 30 -26 0 -24 168 -161 198 -161 16 0 72 62 72 80 0 10 7 23 15 30 8 7
15 19 15 27 0 7 7 25 16 38 21 31 12 55 -20 55 -29 0 -91 55 -99 88 -6 28 12
29 35 3 39 -46 127 -36 200 21 34 26 128 161 128 184 0 5 9 20 20 34 29 37 25
61 -15 93 -83 66 -181 77 -256 28z m93 -103 c15 -7 29 -21 31 -30 5 -18 -45
-73 -56 -62 -4 4 -11 -4 -16 -18 -11 -28 -35 -41 -61 -33 -24 8 -34 37 -17 50
7 5 19 25 25 44 12 33 37 60 58 61 5 0 22 -6 36 -12z"/>
<path d="M6410 4262 c0 -18 33 -52 51 -52 29 0 25 38 -7 50 -31 12 -44 13 -44
2z"/>
<path d="M6508 4182 c7 -5 10 -16 6 -27 -5 -13 -3 -16 7 -13 22 7 17 42 -6 46
-14 2 -16 0 -7 -6z"/>
<path d="M6646 3846 c3 -8 14 -16 25 -19 16 -4 17 -2 8 14 -11 22 -41 26 -33
5z"/>
<path d="M6585 3840 c3 -5 18 -10 32 -10 32 0 28 5 -10 14 -19 4 -26 3 -22 -4z"/>
<path d="M7822 3047 c-44 -22 -129 -104 -118 -114 17 -17 143 65 166 108 15
28 -2 30 -48 6z"/>
<path d="M8255 3009 c-113 -16 -302 -58 -330 -73 -16 -9 -37 -16 -45 -16 -24
0 -103 -44 -166 -92 -33 -24 -72 -52 -88 -62 -26 -17 -27 -19 -12 -28 10 -6
41 -7 71 -3 30 3 84 6 122 6 46 0 82 7 112 20 48 21 196 63 277 78 57 11 396
-2 483 -18 32 -6 74 -24 105 -46 29 -20 75 -43 102 -51 60 -18 164 -33 164
-24 0 4 -14 27 -32 51 -23 32 -32 54 -31 80 1 26 -5 44 -26 66 -33 36 -123 95
-171 112 -38 13 -444 13 -535 0z"/>
<path d="M7645 2890 c3 -5 8 -10 11 -10 2 0 4 5 4 10 0 6 -5 10 -11 10 -5 0
-7 -4 -4 -10z"/>
<path d="M8680 1251 c0 -12 29 -35 36 -28 11 10 -5 37 -21 37 -8 0 -15 -4 -15
-9z"/>
<path d="M9336 544 c-11 -28 -6 -38 9 -18 8 10 15 22 15 27 0 13 -18 7 -24 -9z"/>
<path d="M9352 238 c-14 -14 -16 -57 -3 -76 4 -8 19 -12 32 -10 21 3 24 8 24
48 0 37 -3 45 -20 48 -11 1 -26 -3 -33 -10z"/>
<path d="M7446 238 c-22 -31 -20 -61 5 -84 24 -22 49 -11 63 29 7 19 5 32 -8
51 -20 32 -40 33 -60 4z"/>
<path d="M7841 246 c-7 -8 -11 -31 -9 -52 6 -71 70 -73 76 -2 5 54 -39 88 -67
54z"/>
<path d="M7295 191 c-33 -7 -46 -37 -20 -47 25 -10 65 13 65 36 0 11 -3 19 -7
19 -5 -1 -21 -4 -38 -8z"/>
<path d="M7672 248 c-24 -24 -13 -38 28 -38 33 0 40 4 40 19 0 29 -45 42 -68
19z"/>
<path d="M8622 248 c-7 -7 -12 -28 -12 -48 0 -57 39 -80 73 -42 44 48 -16 135
-61 90z"/>
<path d="M9177 244 c-15 -16 -5 -24 29 -24 24 0 34 4 32 13 -5 13 -50 22 -61
11z"/>
<path d="M9760 252 c-36 -12 -42 -73 -8 -96 27 -19 53 -7 62 29 11 42 -19 79
-54 67z"/>
<path d="M10210 10233 c1 -5 7 -19 15 -33 l14 -25 1 33 c0 22 -5 32 -15 32 -8
0 -15 -3 -15 -7z"/>
</g>
</svg>
